ffmpeg version 4.1 Copyright (c) 2000-2018 the FFmpeg developers
  built with gcc 8.2.1 (GCC) 20181017
  configuration: --enable-gpl --enable-version3 --enable-sdl2 --enable-fontconfig --enable-gnutls --enable-iconv --enable-libass --enable-libbluray --enable-libfreetype --enable-libmp3lame --enable-libopencore-amrnb --enable-libopencore-amrwb --enable-libopenjpeg --enable-libopus --enable-libshine --enable-libsnappy --enable-libsoxr --enable-libtheora --enable-libtwolame --enable-libvpx --enable-libwavpack --enable-libwebp --enable-libx264 --enable-libx265 --enable-libxml2 --enable-libzimg --enable-lzma --enable-zlib --enable-gmp --enable-libvidstab --enable-libvorbis --enable-libvo-amrwbenc --enable-libmysofa --enable-libspeex --enable-libxvid --enable-libaom --enable-libmfx --enable-amf --enable-ffnvcodec --enable-cuvid --enable-d3d11va --enable-nvenc --enable-nvdec --enable-dxva2 --enable-avisynth
  libavutil      56. 22.100 / 56. 22.100
  libavcodec     58. 35.100 / 58. 35.100
  libavformat    58. 20.100 / 58. 20.100
  libavdevice    58.  5.100 / 58.  5.100
  libavfilter     7. 40.101 /  7. 40.101
  libswscale      5.  3.100 /  5.  3.100
  libswresample   3.  3.100 /  3.  3.100
  libpostproc    55.  3.100 / 55.  3.100
Guessed Channel Layout for Input Stream #0.0 : stereo
Input #0, s16le, from 'pipe:':
  Duration: N/A, bitrate: 1411 kb/s
    Stream #0:0: Audio: pcm_s16le, 44100 Hz, stereo, s16, 1411 kb/s
Stream mapping:
  Stream #0:0 -> #0:0 (pcm_s16le (native) -> vorbis (libvorbis))
Output #0, ogg, to 'test-short.ogg':
  Metadata:
    encoder         : Lavf58.20.100
    Stream #0:0: Audio: vorbis (libvorbis), 44100 Hz, stereo, fltp
    Metadata:
      encoder         : Lavc58.35.100 libvorbis
size=      13kB time=00:00:01.10 bitrate=  99.6kbits/s speed=8.17x    
video:0kB audio:9kB subtitle:0kB other streams:0kB global headers:4kB muxing overhead: 42.797710%
